<svg width="256" height="180" viewBox="0 0 256 180" fill="none" xmlns="http://www.w3.org/2000/svg">
<path fill-rule="evenodd" clip-rule="evenodd" d="M176.001 49C176.001 76.0622 154.064 98 127.001 98C99.9392 98 78 76.0622 78 49C78 21.9378 99.9392 0 127.001 0C154.064 0 176.001 21.9378 176.001 49Z" fill="#29296E"/>
<path fill-rule="evenodd" clip-rule="evenodd" d="M149.803 35.8984L148.557 32.0489C148.304 31.266 147.686 30.6567 146.9 30.4165L143.032 29.2269C142.496 29.0634 142.492 28.308 143.023 28.1357L146.874 26.8897C147.655 26.6365 148.265 26.0185 148.506 25.2327L149.694 21.3644C149.858 20.8304 150.613 20.8246 150.786 21.3572L152.032 25.2067C152.285 25.9881 152.903 26.5974 153.689 26.8391L157.557 28.0272C158.092 28.1922 158.098 28.9462 157.566 29.1184L153.715 30.3644C152.933 30.6177 152.324 31.237 152.082 32.0229L150.894 35.8897C150.731 36.4252 149.975 36.431 149.803 35.8984Z" fill="#FAFAFA"/>
<path fill-rule="evenodd" clip-rule="evenodd" d="M82.4561 48.2236C83.6211 45.9414 85.925 44.2221 88.3187 43.1353C90.7369 42.0601 93.3954 41.4001 96.0061 41.186C101.277 40.7098 106.411 41.5912 111.089 43.1151C113.498 43.8329 115.654 44.83 117.882 45.8372C118.964 46.3582 119.981 46.9486 121.029 47.5188L123.924 49.1961C127.102 51.144 130.183 52.869 133.077 54.2091C135.979 55.5376 138.601 56.4363 141.073 56.8951C143.544 57.3596 146.057 57.3538 149.146 56.6447C152.212 55.9515 155.66 54.4566 159.265 52.5391C162.892 50.6201 166.611 48.267 170.854 45.9674C170.429 50.7735 169.068 55.28 166.944 59.6317C164.767 63.9313 161.74 68.1252 157.326 71.5217C152.996 74.9457 147.049 77.3321 140.996 77.691C134.939 78.1006 129.178 76.7663 124.277 74.759C119.356 72.7229 115.104 70.047 111.336 67.0933C110.296 66.2771 109.737 65.814 108.968 65.1643L106.822 63.2844C105.377 62.1527 103.976 60.7996 102.544 59.678C99.6891 57.2916 96.8642 54.9009 93.7673 52.8285C92.2058 51.775 90.5951 50.7981 88.7687 49.9327C87.8614 49.5145 86.8975 49.1252 85.8628 48.8184C84.8035 48.4725 83.7268 48.267 82.4561 48.2236Z" fill="#FF4F0A"/>
<path fill-rule="evenodd" clip-rule="evenodd" d="M82.4561 48.2236C83.0509 43.2786 85.3563 38.6404 89.0509 34.6925C92.7268 30.7822 98.4692 27.7677 104.841 27.3683C107.986 27.1585 111.178 27.5087 114.113 28.322C117.035 29.1324 119.773 30.3133 122.241 31.704C123.474 32.403 124.627 33.1671 125.776 33.9385L128.838 36.2569L133.618 40.0282C136.721 42.4985 139.682 44.7836 142.419 46.6708C145.181 48.5608 147.534 49.9414 149.782 50.7504C152.009 51.6331 154.822 51.8589 158.542 50.924C160.388 50.4985 162.314 49.7214 164.369 48.8792C166.413 48.0166 168.534 46.9877 170.854 45.9674C170.575 48.4537 170.07 50.9298 169.11 53.2438C168.188 55.5897 166.974 57.8849 165.277 60.0253C164.408 61.0673 163.478 62.115 162.392 63.0818C161.307 64.0253 160.104 64.9211 158.776 65.7069C156.126 67.2424 152.983 68.364 149.759 68.7634C146.534 69.1686 143.297 68.966 140.349 68.3408C137.385 67.733 134.685 66.7533 132.206 65.6216C127.265 63.3234 123.132 60.4349 119.478 57.377C117.643 55.8502 115.922 54.2554 114.293 52.636L112.368 50.704C111.788 50.144 111.201 49.581 110.621 49.0658C108.282 46.9978 106.112 45.4175 103.721 44.432C101.348 43.4001 98.31 42.9761 94.5835 43.6737C90.8715 44.364 86.7991 45.9689 82.4561 48.2236Z" fill="#FAFAFA"/>
<path fill-rule="evenodd" clip-rule="evenodd" d="M102.04 73.7239C102.04 75.187 100.853 76.3737 99.3897 76.3737C97.9266 76.3737 96.7414 75.187 96.7414 73.7239C96.7414 72.2608 97.9266 71.0741 99.3897 71.0741C100.853 71.0741 102.04 72.2608 102.04 73.7239Z" fill="#FAFAFA"/>
<path fill-rule="evenodd" clip-rule="evenodd" d="M102.04 73.7239C102.04 75.187 100.853 76.3737 99.3897 76.3737C97.9266 76.3737 96.7414 75.187 96.7414 73.7239C96.7414 72.2608 97.9266 71.0741 99.3897 71.0741C100.853 71.0741 102.04 72.2608 102.04 73.7239Z" fill="#FAFAFA"/>
<path d="M173.278 165.648C170.794 165.648 168.526 165.234 166.474 164.406C164.422 163.578 162.676 162.354 161.236 160.734C159.796 159.078 158.68 157.044 157.888 154.632C157.096 152.184 156.7 149.358 156.7 146.154C156.7 142.95 157.096 140.142 157.888 137.73C158.68 135.282 159.796 133.248 161.236 131.628C162.676 129.972 164.422 128.73 166.474 127.902C168.526 127.074 170.794 126.66 173.278 126.66C175.762 126.66 178.03 127.074 180.082 127.902C182.134 128.73 183.88 129.972 185.32 131.628C186.76 133.248 187.876 135.282 188.668 137.73C189.46 140.142 189.856 142.95 189.856 146.154C189.856 149.358 189.46 152.184 188.668 154.632C187.876 157.044 186.76 159.078 185.32 160.734C183.88 162.354 182.134 163.578 180.082 164.406C178.03 165.234 175.762 165.648 173.278 165.648ZM173.278 158.358C175.762 158.358 177.688 157.548 179.056 155.928C180.46 154.308 181.162 151.986 181.162 148.962V143.346C181.162 140.322 180.46 138 179.056 136.38C177.688 134.76 175.762 133.95 173.278 133.95C170.794 133.95 168.85 134.76 167.446 136.38C166.078 138 165.394 140.322 165.394 143.346V148.962C165.394 151.986 166.078 154.308 167.446 155.928C168.85 157.548 170.794 158.358 173.278 158.358ZM194.007 165V127.308H211.827C213.591 127.308 215.175 127.614 216.579 128.226C217.983 128.802 219.171 129.612 220.143 130.656C221.151 131.7 221.925 132.978 222.465 134.49C223.005 135.966 223.275 137.586 223.275 139.35C223.275 141.15 223.005 142.788 222.465 144.264C221.925 145.74 221.151 147 220.143 148.044C219.171 149.088 217.983 149.916 216.579 150.528C215.175 151.104 213.591 151.392 211.827 151.392H202.215V165H194.007ZM202.215 144.264H210.855C212.079 144.264 213.033 143.958 213.717 143.346C214.437 142.698 214.797 141.762 214.797 140.538V138.162C214.797 136.938 214.437 136.02 213.717 135.408C213.033 134.76 212.079 134.436 210.855 134.436H202.215V144.264ZM238.421 165.648C235.109 165.648 232.301 165.09 229.997 163.974C227.693 162.822 225.731 161.346 224.111 159.546L229.511 154.092C232.067 156.972 235.217 158.412 238.961 158.412C240.977 158.412 242.471 157.998 243.443 157.17C244.415 156.342 244.901 155.244 244.901 153.876C244.901 152.832 244.613 151.968 244.037 151.284C243.461 150.564 242.291 150.078 240.527 149.826L236.801 149.34C232.805 148.836 229.871 147.63 227.999 145.722C226.163 143.814 225.245 141.276 225.245 138.108C225.245 136.416 225.569 134.868 226.217 133.464C226.865 132.06 227.783 130.854 228.971 129.846C230.195 128.838 231.671 128.064 233.399 127.524C235.163 126.948 237.161 126.66 239.393 126.66C242.237 126.66 244.739 127.11 246.899 128.01C249.059 128.91 250.913 130.224 252.461 131.952L247.007 137.46C246.107 136.416 245.009 135.57 243.713 134.922C242.453 134.238 240.851 133.896 238.907 133.896C237.071 133.896 235.703 134.22 234.803 134.868C233.903 135.516 233.453 136.416 233.453 137.568C233.453 138.864 233.795 139.8 234.479 140.376C235.199 140.952 236.351 141.366 237.935 141.618L241.661 142.212C245.549 142.824 248.429 144.03 250.301 145.83C252.173 147.594 253.109 150.114 253.109 153.39C253.109 155.19 252.785 156.846 252.137 158.358C251.489 159.87 250.535 161.166 249.275 162.246C248.051 163.326 246.521 164.172 244.685 164.784C242.849 165.36 240.761 165.648 238.421 165.648Z" fill="#26296E"/>
<path fill-rule="evenodd" clip-rule="evenodd" d="M21.37 146.783C20.138 145.98 17.902 144.967 14.662 143.744C11.421 142.521 9.172 141.423 7.913 140.45C6.655 139.477 6.025 138.133 6.025 136.419C6.025 134.705 6.663 133.353 7.94 132.362C9.216 131.371 10.899 130.876 12.988 130.876C15.077 130.876 16.777 131.443 18.089 132.576C19.402 133.71 20.058 135.321 20.058 137.41H25.173C25.173 133.822 23.985 131.014 21.611 128.988C19.236 126.962 16.376 125.949 13.028 125.949C9.681 125.949 6.837 126.89 4.499 128.774C2.16 130.658 0.991005 133.188 0.991005 136.366C0.991005 138.83 1.597 140.784 2.812 142.231C3.454 142.998 4.07 143.646 4.659 144.172C5.249 144.699 6.489 145.422 8.382 146.341C10.274 147.261 11.881 147.881 13.202 148.202C15.745 149.294 17.83 150.184 19.161 151.148C20.49 152.112 21.156 153.438 21.156 155.125C21.156 156.812 20.464 158.174 19.08 159.209C17.697 160.244 15.787 160.762 13.35 160.762C10.913 160.762 8.926 160.151 7.391 158.928C5.855 157.705 5.08801 155.96 5.08801 153.692H0C0 157.495 1.307 160.459 3.923 162.583C6.538 164.708 9.694 165.77 13.39 165.77C17.085 165.77 20.156 164.797 22.602 162.851C25.048 160.905 26.257 158.254 26.231 154.897C26.204 151.541 24.584 148.836 21.37 146.783Z" fill="#26296E"/>
<path fill-rule="evenodd" clip-rule="evenodd" d="M55.2389 127.028H29.9949V131.828H40.0979V165.054H45.0829V131.828H55.2389V127.028Z" fill="#26296E"/>
<path fill-rule="evenodd" clip-rule="evenodd" d="M68.3913 127.028L54.3633 165.054H59.7463C59.7463 165.054 61.1133 160.823 62.2223 159.093C67.0413 151.582 75.0533 150.666 77.6283 150.735L82.7633 165.054H88.1463L74.0923 127.028H68.3913ZM65.3333 149.477L71.2553 132.968L75.8953 145.904C73.2493 146.098 69.3923 146.894 65.3333 149.477Z" fill="#26296E"/>
<path fill-rule="evenodd" clip-rule="evenodd" d="M153.828 127.028H147.623L131.766 144.264V127.028H126.728V165.054H131.766V146.81L148.18 165.054H154.358L137.043 145.564L153.828 127.028Z" fill="#26296E"/>
<path fill-rule="evenodd" clip-rule="evenodd" d="M110.964 151.365C110.196 150.655 109.417 150.038 108.636 149.495C111.088 149.133 113.73 147.793 115.431 145.617C116.982 143.634 117.659 141.321 117.659 138.829C117.659 135.558 116.501 132.774 114.185 130.476C111.869 128.178 109.085 127.029 105.832 127.029H91.99V165.054H97.028V150.714C99.783 150.778 103.88 151.473 107.646 154.953C111.257 158.295 113.752 162.447 115.037 165.052H120.388C119.28 162.174 116.105 156.119 110.964 151.365ZM105.832 131.775C107.706 131.775 109.306 132.461 110.632 133.83C111.958 135.2 112.62 136.862 112.62 138.815C112.62 140.769 111.978 142.464 110.632 143.84C108.231 146.294 102.682 145.805 97.177 145.83C97.127 145.829 97.077 145.827 97.028 145.826V131.775H105.832Z" fill="#26296E"/>
</svg>
